<svg xmlns="http://www.w3.org/2000/svg" viewBox="0 0 306 56" enable-background="new 0 0 306 56"><style type="text/css">.st0{fill:#2E2E2E;} .st1{fill:#F4858A;} .st2{fill:url(#SVGID_1_);} .st3{fill:url(#SVGID_2_);} .st4{fill:url(#SVGID_3_);} .st5{fill:url(#SVGID_4_);}</style><path class="st0" d="M81.2 36.8h11.2v4.2h-16.5v-25.6h5.3v21.4zm24.9 4.2c-.2-.5-.4-1-.5-1.7-1.2 1.4-2.8 2.1-4.8 2.1-1.9 0-3.4-.5-4.6-1.6-1.2-1.1-1.8-2.4-1.8-4.1 0-2 .7-3.6 2.2-4.6 1.5-1.1 3.7-1.6 6.5-1.6h2.3v-1.1c0-.9-.2-1.6-.7-2.1-.4-.5-1.2-.8-2.1-.8-.9 0-1.5.2-2 .6-.5.4-.7 1-.7 1.7h-5.1c0-1.1.3-2.1 1-3.1.7-.9 1.6-1.7 2.9-2.2 1.2-.5 2.6-.8 4.2-.8 2.3 0 4.2.6 5.6 1.8 1.4 1.2 2.1 2.8 2.1 5v8.2c0 1.8.3 3.2.8 4.1v.2h-5.3zm-4.2-3.5c.8 0 1.4-.2 2.1-.5.6-.3 1.1-.8 1.4-1.3v-3.3h-1.9c-2.5 0-3.9.9-4.1 2.6v.3c0 .6.2 1.2.7 1.6.4.4 1 .6 1.8.6zm23.2-10.8c-.7-.1-1.3-.1-1.8-.1-1.9 0-3.2.6-3.8 2v12.4h-5.1v-19h4.8l.1 2.3c1-1.7 2.4-2.6 4.2-2.6.6 0 1.1.1 1.6.2v4.8zm12.9 14.3c-.2-.5-.4-1-.5-1.7-1.2 1.4-2.8 2.1-4.8 2.1-1.9 0-3.4-.5-4.6-1.6-1.2-1.1-1.8-2.4-1.8-4.1 0-2 .7-3.6 2.2-4.6 1.5-1.1 3.7-1.6 6.5-1.6h2.3v-1.1c0-.9-.2-1.6-.7-2.1-.4-.5-1.2-.8-2.1-.8-.9 0-1.5.2-2 .6-.5.4-.7 1-.7 1.7h-5.1c0-1.1.3-2.1 1-3.1.7-.9 1.6-1.7 2.9-2.2 1.2-.5 2.6-.8 4.2-.8 2.3 0 4.2.6 5.6 1.8 1.4 1.2 2.1 2.8 2.1 5v8.2c0 1.8.3 3.2.8 4.1v.2h-5.3zm-4.2-3.5c.8 0 1.4-.2 2.1-.5.6-.3 1.1-.8 1.4-1.3v-3.3h-1.9c-2.5 0-3.9.9-4.1 2.6v.3c0 .6.2 1.2.7 1.6.4.4 1 .6 1.8.6zm19.4-2.7l3.5-12.8h5.3l-6.4 19h-4.9l-6.4-19h5.3l3.6 12.8zm19.6 6.6c-2.8 0-5.1-.9-6.8-2.6-1.8-1.7-2.6-4-2.6-6.8v-.5c0-1.9.4-3.6 1.1-5.1.7-1.5 1.8-2.7 3.1-3.5 1.4-.8 2.9-1.2 4.6-1.2 2.6 0 4.6.8 6.1 2.5 1.5 1.6 2.2 4 2.2 7v2.1h-12.1c.2 1.2.7 2.2 1.5 3 .8.8 1.9 1.1 3.1 1.1 2 0 3.5-.7 4.6-2.1l2.5 2.8c-.8 1.1-1.8 1.9-3.1 2.5-1.2.5-2.7.8-4.2.8zm-.6-15.7c-1 0-1.8.3-2.5 1s-1 1.7-1.2 2.9h7.1v-.4c0-1.1-.3-2-.9-2.6s-1.4-.9-2.5-.9zm16.6 15.3h-5.1v-27h5.1v27z"/><path class="st1" d="M41.2 53h-28.4c-5.9 0-10.8-4.9-10.8-10.8v-28.4c0-5.9 4.9-10.8 10.8-10.8h28.3c6 0 10.9 4.9 10.9 10.8v28.3c0 6-4.9 10.9-10.8 10.9zm-28.4-48.3c-5.1 0-9.2 4.1-9.2 9.2v28.3c0 5.1 4.1 9.2 9.2 9.2h28.3c5.1 0 9.2-4.1 9.2-9.2v-28.4c0-5.1-4.1-9.2-9.2-9.2h-28.3z"/><linearGradient id="SVGID_1_" gradientUnits="userSpaceOnUse" x1="27" y1="1" x2="27" y2="16.32"><stop offset="0" stop-color="#F4858A"/><stop offset="1" stop-color="#EE2C2E"/></linearGradient><path class="st2" d="M36.5 15.8l6.9-6.9c.7-.7.6-1.9-.2-2.5-9.6-7.2-22.9-7.2-32.5 0-.8.6-.8 1.8-.1 2.5l6.9 6.9c.5.5 1.4.6 2.1.2 4.6-2.9 10.4-2.9 15 0 .5.5 1.4.4 1.9-.2z"/><linearGradient id="SVGID_2_" gradientUnits="userSpaceOnUse" y1="28" x2="15.319" y2="28"><stop offset="0" stop-color="#F4858A"/><stop offset="1" stop-color="#EE2C2E"/></linearGradient><path class="st3" d="M14.8 18.5l-6.9-6.9c-.7-.7-1.9-.6-2.5.2-7.2 9.6-7.2 22.9 0 32.5.6.8 1.8.9 2.5.2l6.9-6.9c.5-.5.6-1.4.2-2.1-2.9-4.6-2.9-10.4 0-15 .5-.6.4-1.5-.2-2z"/><linearGradient id="SVGID_3_" gradientUnits="userSpaceOnUse" x1="54" y1="28" x2="38.68" y2="28"><stop offset="0" stop-color="#F4858A"/><stop offset="1" stop-color="#EE2C2E"/></linearGradient><path class="st4" d="M46.1 11.6l-6.9 6.9c-.5.5-.6 1.4-.2 2.1 2.9 4.6 2.9 10.4 0 15-.4.7-.3 1.5.2 2.1l6.9 6.9c.7.7 1.9.6 2.5-.2 7.2-9.6 7.2-22.9 0-32.5-.6-1-1.8-1-2.5-.3z"/><linearGradient id="SVGID_4_" gradientUnits="userSpaceOnUse" x1="27" y1="55" x2="27" y2="39.68"><stop offset="0" stop-color="#F37363"/><stop offset="1" stop-color="#F05250"/></linearGradient><path class="st5" d="M17.5 40.2l-6.9 6.9c-.7.7-.6 1.9.2 2.5 9.6 7.2 22.9 7.2 32.5 0 .8-.6.9-1.8.2-2.5l-6.9-6.9c-.5-.5-1.4-.6-2.1-.2-4.6 2.9-10.4 2.9-15 0-.6-.5-1.5-.4-2 .2z"/><path class="st0" d="M218.3 41h-1.6v-11.4h-13.5v11.4h-1.6v-23.2h1.6v10.3h13.5v-10.3h1.6v23.2zM230.7 41.3c-2.5 0-4.4-.8-5.8-2.3-1.4-1.5-2.1-3.7-2.1-6.5 0-2.7.7-4.9 2-6.6 1.4-1.7 3.2-2.5 5.5-2.5 2 0 3.6.7 4.8 2.1 1.2 1.4 1.8 3.3 1.8 5.8v1.3h-12.4c0 2.4.6 4.2 1.7 5.4 1.1 1.2 2.6 1.9 4.6 1.9 1 0 1.8-.1 2.6-.2.7-.1 1.7-.4 2.8-.9v1.4c-1 .4-1.9.7-2.7.9-.9.1-1.8.2-2.8.2zm-.4-16.5c-1.7 0-3 .5-4 1.6s-1.6 2.7-1.8 4.7h10.6c0-2-.4-3.6-1.3-4.7-.8-1-2-1.6-3.5-1.6zM242.5 41h-1.6v-24.6h1.6v24.6zM255 41.3c-2.6 0-4.6-1-5.8-3h-.1v1.3c0 .8.1 1.6.1 2.6v6.5h-1.6v-25h1.3l.3 2.5h.1c1.2-1.9 3.1-2.8 5.7-2.8 2.3 0 4.1.8 5.3 2.3 1.2 1.5 1.8 3.7 1.8 6.7 0 2.8-.6 5-1.9 6.6-1.3 1.5-3 2.3-5.2 2.3zm-.1-1.4c1.8 0 3.1-.7 4.1-2 1-1.3 1.4-3.1 1.4-5.5 0-5.1-1.8-7.6-5.5-7.6-2 0-3.5.6-4.4 1.7-.9 1.1-1.4 2.9-1.4 5.4v.5c0 2.7.5 4.6 1.4 5.8.9 1.1 2.4 1.7 4.4 1.7zM273.2 41.3c-2.5 0-4.4-.8-5.8-2.3-1.4-1.5-2.1-3.7-2.1-6.5 0-2.7.7-4.9 2-6.6 1.4-1.7 3.2-2.5 5.5-2.5 2 0 3.6.7 4.8 2.1 1.2 1.4 1.8 3.3 1.8 5.8v1.3h-12.4c0 2.4.6 4.2 1.7 5.4 1.1 1.2 2.6 1.9 4.6 1.9 1 0 1.8-.1 2.6-.2.7-.1 1.7-.4 2.8-.9v1.4c-1 .4-1.9.7-2.7.9-.9.1-1.8.2-2.8.2zm-.5-16.5c-1.7 0-3 .5-4 1.6s-1.6 2.7-1.8 4.7h10.6c0-2-.4-3.6-1.3-4.7-.7-1-1.9-1.6-3.5-1.6zM290.1 23.4c.7 0 1.5.1 2.3.2l-.3 1.5c-.7-.2-1.5-.3-2.2-.3-1.5 0-2.7.6-3.6 1.9s-1.4 2.8-1.4 4.7v9.6h-1.6v-17.2h1.3l.2 3.1h.1c.7-1.3 1.5-2.2 2.3-2.7.8-.5 1.8-.8 2.9-.8zM306 36.5c0 1.5-.6 2.7-1.8 3.6-1.2.8-2.8 1.2-5 1.2-2.3 0-4.1-.4-5.5-1.1v-1.7c1.7.9 3.6 1.3 5.5 1.3 1.7 0 3-.3 3.9-.8.9-.6 1.3-1.3 1.3-2.3 0-.9-.4-1.6-1.1-2.2-.7-.6-1.9-1.2-3.5-1.7-1.7-.6-2.9-1.2-3.6-1.6-.7-.4-1.2-1-1.6-1.5-.4-.6-.5-1.3-.5-2.1 0-1.3.5-2.3 1.6-3.1 1.1-.7 2.6-1.1 4.5-1.1s3.6.3 5.3 1l-.6 1.4c-1.7-.7-3.3-1-4.7-1-1.4 0-2.5.2-3.3.7-.8.5-1.2 1.1-1.2 1.9 0 .9.3 1.6 1 2.2.6.5 1.9 1.1 3.7 1.8 1.5.6 2.7 1.1 3.4 1.5.7.4 1.2 1 1.6 1.5.4.7.6 1.3.6 2.1z"/></svg>